<svg xmlns="http://www.w3.org/2000/svg" xml:space="preserve" width="58mm" height="15mm" style="shape-rendering:geometricPrecision;text-rendering:geometricPrecision;image-rendering:optimizeQuality;fill-rule:evenodd;clip-rule:evenodd" viewBox="64.04 36.63 5676.58 1435.93">
  <path d="M768.64 528.17v-.04l78.83-18.92.01.03 82.14-19.72-.01-.04 81.11-19.48.01.05c35.63-8.57 104.21-19.6 130.02-45.41 32-32.01 31.97-83.71-.01-115.71-32.02-32.01-83.7-32.01-115.72 0-17.49 17.51-25.82 40.92-23.59 65.51l1.36 14.9-81.28 19.52c-.87-8.96-1.7-17.92-2.53-26.89-4.44-49.08 12.62-96.7 47.5-131.58 64.3-64.29 168.48-64.31 232.79.01 64.31 64.29 64.28 168.47-.01 232.76-37.52 37.53-108.83 51.29-163.72 63.63l-.04-.22-296.54 71.21v.08l-125.1 30.04c-22.83 7.94-56.63 11.74-96.29 51.42-64.3 64.29-64.31 168.47 0 232.78 64.29 64.31 168.47 64.28 232.77 0 34.89-34.9 51.94-82.51 47.47-131.58l-11.71-111.5 78.82-18.93 15.34 122.92c6.71 73.51-19.1 145.32-71.4 197.61-96.61 96.63-253.23 96.63-349.83.02-96.64-96.62-96.65-253.25-.01-349.88 32.14-32.14 71.69-54.27 114.48-64.99l195.14-47.6zm433.83 351.71c-14.97 131.64-74.68 249.69-163.58 338.59-103.34 103.33-246.1 167.25-403.79 167.25-157.7 0-300.45-63.92-403.8-167.25-39.79-39.8-73.73-85.45-100.43-135.53-31.9-65.48 36.14-97.56 70.64-38.85l.05.07c23.01 43.38 52.33 82.89 86.74 117.3 88.74 88.75 211.36 143.65 346.8 143.65 135.42 0 258.03-54.9 346.78-143.65 79.14-79.13 124.53-178.3 139.89-288.1h.01s.02-.13.04-.38l.09-.57v-.06c9.2-59.36 86.41-64.74 80.56 7.53zM74.17 922.3c-6.65-34.85-10.13-70.84-10.13-107.63 0-147.45 55.91-281.82 147.63-383.15 14.38-15.01 35.47-29.94 57.34-25.6 24.66 4.89 40.17 38.15 6.68 75.04l-.08.1c-81.27 87.52-130.96 204.76-130.96 333.61 0 23.62 1.71 47.37 5.08 70.78 5.59 35.67 5.26 62.67-29.3 73.07-32.27 3.63-42.93-22.7-46.26-36.22zm369.37 259.94c-36.56-19.03-70.88-43.83-101.58-74.53-161.26-161.26-161.24-422.76 0-584 79.64-79.64 183.77-119.92 288.18-120.89 54.37-.48 60.4 84.09 6.56 82.77-88.26-2.15-173.06 33.52-236.21 96.66-128.91 128.93-128.91 338 0 466.92 24.64 24.64 52.21 44.55 81.61 59.77 68.99 35.73 21.72 104.6-38.56 73.3zm316.2-734.53-5.64-50.7c-8.91-97.99 25.67-194.04 95.32-263.69 128.92-128.91 338-128.93 466.92 0 21.54 21.53 39.45 45.29 53.79 70.56 38.3 78.7-37.85 107.32-63.69 56.84-11.81-24.91-28.02-48.25-48.63-68.87-96.63-96.62-253.25-96.64-349.88-.02-52.27 52.28-78.08 124.14-71.36 197.66l3.55 38.91-80.38 19.31zm268.94 183.05 16.43 147.22c10.75 117.86-28.95 239.5-119.17 329.72-85.67 85.66-199.62 125.77-311.79 120.43-51.86-2.5-40.18-83.36 13.57-82.35 86.58 1.62 173.64-30.58 239.68-96.61 69.67-69.67 104.22-165.72 95.29-263.68-4.95-45.06-10.11-90.13-15.26-135.22l81.25-19.51z" style="fill:#ffc324;stroke:#000;stroke-width:0;stroke-miterlimit:0"/>
  <path d="M1796 950.28c-68.35 0-125.09-9.74-170.21-29.22-45.11-19.48-79.29-44.94-102.53-76.39-23.24-31.44-35.55-64.94-36.92-100.48 0-5.47 2.23-10.43 6.67-14.87 4.44-4.44 9.74-6.67 15.89-6.67h129.2c9.57 0 16.92 1.71 22.04 5.13 5.13 3.42 9.74 7.86 13.85 13.33 5.46 10.26 13.15 20.17 23.07 29.74 9.91 9.57 22.9 17.26 38.96 23.07 16.06 5.81 36.06 8.71 59.98 8.71 39.65 0 69.56-6.15 89.72-18.45 20.17-12.31 30.25-29.06 30.25-50.25 0-15.04-5.47-27.51-16.4-37.42-10.94-9.91-28.54-18.8-52.81-26.66-24.27-7.86-56.57-15.89-96.9-24.1-51.95-10.93-96.21-25.12-132.78-42.55-36.57-17.43-64.43-40.33-83.57-68.7-19.14-28.37-28.71-63.74-28.71-106.12 0-41.7 11.79-78.96 35.38-111.77 23.58-32.81 56.56-58.44 98.94-76.9 42.38-18.46 92.63-27.69 150.73-27.69 47.17 0 88.69 6.16 124.58 18.46 35.89 12.31 66.14 28.71 90.75 49.22 24.61 20.51 43.23 42.21 55.88 65.11 12.65 22.9 19.31 45.29 19.99 67.16 0 5.47-2.05 10.43-6.15 14.87-4.1 4.44-9.23 6.66-15.38 6.66h-135.35c-7.52 0-14.01-1.36-19.48-4.1-5.47-2.73-10.25-7.18-14.35-13.33-4.1-15.04-14.87-28.2-32.3-39.47-17.43-11.28-40.16-16.92-68.19-16.92-30.08 0-53.49 5.29-70.24 15.89-16.74 10.6-25.12 26.83-25.12 48.7 0 13.68 4.62 25.64 13.85 35.89 9.22 10.26 24.6 19.14 46.14 26.66 21.53 7.52 51.09 15.38 88.69 23.59 62.21 11.62 112.45 26.14 150.73 43.57 38.28 17.43 66.3 39.99 84.08 67.68 17.77 27.68 26.66 62.37 26.66 104.07 0 46.48-13.16 86.64-39.48 120.48-26.32 33.84-62.72 59.64-109.2 77.42-46.48 17.77-99.8 26.65-159.96 26.65zm605.8-10.25c-7.52 0-13.67-2.39-18.46-7.18-4.78-4.78-7.18-10.93-7.18-18.45V383.26h-182.51c-7.52 0-13.67-2.56-18.46-7.69-4.78-5.13-7.18-11.11-7.18-17.94V247.91c0-7.52 2.4-13.67 7.18-18.45 4.79-4.79 10.94-7.18 18.46-7.18h551.64c7.52 0 13.67 2.39 18.46 7.18 4.78 4.78 7.18 10.93 7.18 18.45v109.72c0 6.83-2.4 12.81-7.18 17.94-4.79 5.13-10.94 7.69-18.46 7.69h-182.51V914.4c0 7.52-2.39 13.67-7.18 18.45-4.78 4.79-10.94 7.18-18.46 7.18H2401.8zm506.33 0c-7.52 0-13.67-2.39-18.46-7.18-4.78-4.78-7.17-10.93-7.17-18.45V247.91c0-7.52 2.39-13.67 7.17-18.45 4.79-4.79 10.94-7.18 18.46-7.18h278.9c88.18 0 157.73 20.33 208.66 61.01 50.93 40.67 76.39 98.26 76.39 172.77 0 48.54-11.79 89.55-35.38 123.04-23.58 33.5-54.51 58.79-92.79 75.88l141.5 252.24c2.05 4.1 3.08 7.86 3.08 11.28 0 5.47-2.23 10.42-6.67 14.87-4.44 4.44-9.74 6.66-15.89 6.66h-135.35c-12.99 0-22.56-3.25-28.71-9.74-6.15-6.49-10.6-12.47-13.33-17.94l-116.89-225.58h-105.61V914.4c0 7.52-2.4 13.67-7.18 18.45-4.79 4.79-10.94 7.18-18.46 7.18h-132.27zm157.91-397.84h118.94c32.13 0 56.22-7.86 72.29-23.58 16.06-15.72 24.09-37.26 24.09-64.6 0-26.66-7.69-48.19-23.07-64.6-15.38-16.4-39.82-24.61-73.31-24.61h-118.94v177.39zm568.88 397.84c-7.52 0-13.67-2.39-18.46-7.18-4.78-4.78-7.18-10.93-7.18-18.45V247.91c0-7.52 2.4-13.67 7.18-18.45 4.79-4.79 10.94-7.18 18.46-7.18h478.84c7.52 0 13.67 2.39 18.46 7.18 4.78 4.78 7.17 10.93 7.17 18.45v96.39c0 7.52-2.39 13.67-7.17 18.45-4.79 4.79-10.94 7.18-18.46 7.18h-327.09v138.42h304.53c7.52 0 13.67 2.57 18.46 7.69 4.78 5.13 7.18 11.45 7.18 18.97v89.21c0 6.84-2.4 12.82-7.18 17.94-4.79 5.13-10.94 7.69-18.46 7.69h-304.53v142.53h335.29c7.52 0 13.68 2.39 18.46 7.18 4.79 4.78 7.18 10.93 7.18 18.45v96.39c0 7.52-2.39 13.67-7.18 18.45-4.78 4.79-10.94 7.18-18.46 7.18h-487.04zm606.82 0c-5.47 0-10.43-2.22-14.87-6.66-4.44-4.45-6.67-9.4-6.67-14.87 0-3.42.35-6.5 1.03-9.23l240.96-658.28c2.05-7.52 6.32-14.19 12.82-20 6.49-5.81 15.55-8.71 27.17-8.71h151.75c11.62 0 20.68 2.9 27.17 8.71 6.5 5.81 10.77 12.48 12.82 20l239.94 658.28c1.36 2.73 2.05 5.81 2.05 9.23 0 5.47-2.22 10.42-6.67 14.87-4.44 4.44-9.74 6.66-15.89 6.66h-126.12c-10.25 0-17.94-2.56-23.07-7.69-5.13-5.13-8.37-9.74-9.74-13.84l-39.99-104.59h-273.77l-38.97 104.59c-1.36 4.1-4.44 8.71-9.22 13.84-4.79 5.13-12.99 7.69-24.61 7.69h-126.12zm240.96-273.77h190.71l-96.38-270.7-94.33 270.7zm578.11 273.77c-6.84 0-12.82-2.39-17.95-7.18-5.13-4.78-7.69-10.93-7.69-18.45V247.91c0-7.52 2.56-13.67 7.69-18.45 5.13-4.79 11.11-7.18 17.95-7.18h110.73c10.94 0 19.32 2.9 25.13 8.71 5.81 5.81 9.4 10.43 10.76 13.85l180.47 324.01 180.46-324.01c2.05-3.42 5.64-8.04 10.77-13.85 5.12-5.81 13.5-8.71 25.12-8.71h109.71c7.52 0 13.84 2.39 18.97 7.18 5.13 4.78 7.69 10.93 7.69 18.45V914.4c0 7.52-2.56 13.67-7.69 18.45-5.13 4.79-11.45 7.18-18.97 7.18h-122.02c-7.52 0-13.84-2.39-18.97-7.18-5.12-4.78-7.69-10.93-7.69-18.45V529.89l-115.86 214.3c-2.74 6.15-6.84 11.62-12.31 16.4-5.47 4.79-12.98 7.18-22.55 7.18h-53.32c-9.57 0-17.09-2.39-22.56-7.18-5.47-4.78-9.91-10.25-13.33-16.4l-115.87-214.3V914.4c0 7.52-2.39 13.67-7.17 18.45-4.79 4.79-10.94 7.18-18.46 7.18h-123.04zm-1428.08 410.46c-25.08 0-43.57-15.62-50.56-38.64h153.31c0-80.14-39.05-130.7-105.63-130.7-62.06 0-109.33 46.45-109.33 110.57 0 65.34 49.32 111.79 112.62 111.79 31.23 0 67.81-13.15 86.72-32.88l-38.22-39.05c-11.51 11.1-32.06 18.91-48.91 18.91zm-.42-116.32c24.25 0 39.87 13.57 45.63 34.53h-94.95c7.81-21.37 26.72-34.53 49.32-34.53zm258.44 169.34c35.35 0 64.12-14.39 85.08-37.4l-39.86-33.71c-11.1 12.33-28.36 20.55-44.8 20.55-31.65 0-57.96-27.94-57.96-61.23 0-32.47 26.31-60.01 57.54-60.01 16.45 0 33.3 7.81 43.98 19.73l39.87-34.12c-20.55-22.19-48.91-36.17-83.43-36.17-62.89 0-116.32 50.56-116.32 110.98 0 60.41 53.02 111.38 115.9 111.38zm231.73 0c62.88 0 115.49-50.97 115.49-111.38 0-60.42-52.61-110.98-115.49-110.98-63.29 0-116.32 50.56-116.32 110.98 0 60.41 53.03 111.38 116.32 111.38zm0-50.56c-32.06 0-58.77-27.94-58.77-60.82 0-32.88 26.71-60.42 58.77-60.42 31.65 0 58.36 27.54 58.36 60.42s-26.71 60.82-58.36 60.82zm246.52 50.56c52.2 0 86.31-26.72 86.31-68.64 0-46.44-40.69-58.77-77.27-68.23-28.77-7.81-37.4-11.09-37.4-22.6 0-7.4 10.28-12.74 25.07-12.74 18.09 0 40.28 6.98 59.6 18.9l24.25-42.74c-23.43-15.62-53.43-26.31-83.85-26.31-50.14 0-83.43 28.78-83.02 69.05.41 41.93 34.11 53.85 77.68 64.53 21.78 5.76 37.4 9.87 37.4 23.02 0 9.45-11.51 16.03-27.53 16.03-28.37 0-52.2-10.28-71.11-23.84l-25.89 41.51c25.48 20.55 61.65 32.06 95.76 32.06zm185.69 69.05c33.29 0 60.42-21.78 76.45-63.3l87.13-223.17h-61.24l-53.02 149.19-55.89-149.19h-62.07l88.37 214.54-7.4 15.62c-4.52 7.81-13.56 11.51-25.07 11.51-6.98 0-17.67-3.7-27.95-9.45l-12.74 41.1c14.39 7.81 35.76 13.15 53.43 13.15zm288.86-69.05c52.2 0 86.31-26.72 86.31-68.64 0-46.44-40.69-58.77-77.27-68.23-28.77-7.81-37.4-11.09-37.4-22.6 0-7.4 10.27-12.74 25.07-12.74 18.09 0 40.28 6.98 59.6 18.9l24.25-42.74c-23.43-15.62-53.43-26.31-83.85-26.31-50.14 0-83.43 28.78-83.02 69.05.41 41.93 34.11 53.85 77.68 64.53 21.78 5.76 37.4 9.87 37.4 23.02 0 9.45-11.51 16.03-27.54 16.03-28.36 0-52.2-10.28-71.1-23.84l-25.9 41.51c25.49 20.55 61.65 32.06 95.77 32.06zm248.99-57.54c-4.11 4.11-12.33 6.98-20.55 6.98-11.1 0-20.14-9.86-20.14-23.83v-94.53h46.03v-48.5h-46.03v-58.37h-57.54v58.37h-29.19v48.5h29.19v103.98c0 38.22 26.3 64.94 63.7 64.94 17.26 0 36.58-7.4 48.91-18.5l-14.38-39.04zm162.67 4.52c-25.07 0-43.56-15.62-50.55-38.64h153.3c0-80.14-39.04-130.7-105.62-130.7-62.07 0-109.33 46.45-109.33 110.57 0 65.34 49.32 111.79 112.61 111.79 31.24 0 67.82-13.15 86.73-32.88l-38.23-39.05c-11.51 11.1-32.06 18.91-48.91 18.91zm-.41-116.32c24.25 0 39.87 13.57 45.62 34.53h-94.94c7.81-21.37 26.72-34.53 49.32-34.53zm407.23-53.02c-31.65 0-57.95 15.21-69.05 38.64-13.16-23.84-38.23-38.64-67.41-38.64-26.3 0-47.26 12.74-57.54 32.89v-27.95h-60.01v212.49h60.01v-128.24c0-22.6 16.85-38.63 41.1-38.63 21.79 0 37.4 17.26 37.4 41.92v125.36h57.55v-128.65c0-22.6 17.26-38.63 41.1-38.63 22.19 0 37.81 17.26 37.81 41.92v125.36h57.54v-135.63c0-48.09-34.11-82.21-78.5-82.21z" style="fill:black;fill-rule:nonzero"/>
</svg>
